<svg id="svg" fill="#000000" stroke="#000000" width="200px" height="200px" version="1.1" viewBox="144 144 512 512" xmlns="http://www.w3.org/2000/svg">
    <g id="IconSvg_bgCarrier" stroke-width="0"></g>
    <g id="IconSvg_tracerCarrier" stroke-linecap="round" stroke-linejoin="round" stroke="#CCCCCC"></g>
     <g id="IconSvg_iconCarrier">
      <g xmlns="http://www.w3.org/2000/svg">
  <path d="m582.88 393.45v-0.50391c-31.234 36.777-70.535 73.051-114.87 106.81-44.336 33.25-90.688 60.961-134.01 81.113 58.945 21.16 124.44 11.082 174.82-26.703 49.875-38.289 77.582-98.746 74.059-160.71z"></path>
  <path d="m582.88 374.3c50.383-61.969 68.52-114.87 48.871-140.56-13.098-17.129-39.801-18.641-59.953-16.625-2.0156 0-4.0312-1.0078-5.543-2.5195-0.50391-0.50391-1.0078-1.0078-1.0078-1.5117-10.578-14.105-34.762-17.633-68.016-10.578 5.543 3.0234 10.078 7.0547 13.602 12.09 2.0156 2.5195 3.5273 5.543 5.0391 8.5664v0.50391c1.5117 4.0312 5.0391 14.609 3.5273 28.215-1.5117 15.617-7.5586 33.754-18.641 53.402-51.891 91.191-152.65 158.2-154.67 155.68-2.0156-2.5195 89.176-60.457 144.59-161.22 9.5742-17.129 15.113-32.242 17.129-45.848-0.50391 0-0.50391-0.50391-1.0078-0.50391-1.0078-1.0078-2.5195-1.5117-3.5273-2.5195l-0.50391-0.50391c-66-45.344-154.16-44.336-218.65 4.5352-82.121 61.969-99.25 179.36-37.281 261.98 2.5195 3.5273 5.543 7.0547 8.5664 10.578 43.832-9.0703 107.82-41.312 167.77-87.16 116.38-89.176 142.58-177.84 146.11-178.35 3.0234 0-14.609 93.203-139.05 187.42-63.48 48.367-129.48 81.617-175.83 90.184h-0.50391c-32.746 5.543-46.855-3.0234-53.402-11.586-11.586-15.113-2.5195-40.809 7.5586-60.457v-0.50391c0-0.50391-0.50391-1.0078-0.50391-2.0156-0.50391-1.0078-0.50391-1.5117-1.0078-2.5195 0-0.50391-0.50391-1.0078-0.50391-2.0156 0-0.50391-0.50391-1.0078-0.50391-1.5117-40.809 55.418-54.914 101.77-37.785 124.44 19.648 26.199 75.066 23.176 148.62-8.0625 46.855-19.648 96.73-48.871 144.59-85.145 47.848-36.273 90.168-76.074 121.91-115.88z"></path>
 </g>

      </g>
      </svg>