<?xml version="1.0" encoding="UTF-8"?>
<svg id="svg" xmlns="http://www.w3.org/2000/svg" version="1.1" viewBox="0 0 200 200">
  <!-- Generator: Adobe Illustrator 29.0.0, SVG Export Plug-In . SVG Version: 2.1.0 Build 186)  -->
  <defs>
    <style>
      .st0 {
        fill: #fff;
        stroke: #000;
        stroke-miterlimit: 1.6;
        stroke-width: .4px;
      }
    </style>
  </defs>
  <g id="IconSvg_iconCarrier">
    <g>
      <path class="st0" d="M171.4,97.4v-.2c-12.2,14.4-27.6,28.5-44.9,41.7-17.3,13-35.4,23.8-52.3,31.7,23,8.3,48.6,4.3,68.3-10.4,19.5-15,30.3-38.6,28.9-62.8h0Z"/>
      <path class="st0" d="M171.4,90c19.7-24.2,26.8-44.9,19.1-54.9-5.1-6.7-15.5-7.3-23.4-6.5-.8,0-1.6-.4-2.2-1-.2-.2-.4-.4-.4-.6-4.1-5.5-13.6-6.9-26.6-4.1,2.2,1.2,3.9,2.8,5.3,4.7.8,1,1.4,2.2,2,3.3v.2c.6,1.6,2,5.7,1.4,11-.6,6.1-3,13.2-7.3,20.9-20.3,35.6-59.6,61.8-60.4,60.8-.8-1,34.8-23.6,56.5-63,3.7-6.7,5.9-12.6,6.7-17.9-.2,0-.2-.2-.4-.2-.4-.4-1-.6-1.4-1l-.2-.2c-25.8-17.7-60.2-17.3-85.4,1.8-32.1,24.2-38.8,70.1-14.6,102.3,1,1.4,2.2,2.8,3.3,4.1,17.1-3.5,42.1-16.1,65.5-34,45.5-34.8,55.7-69.5,57.1-69.7,1.2,0-5.7,36.4-54.3,73.2-24.8,18.9-50.6,31.9-68.7,35.2h-.2c-12.8,2.2-18.3-1.2-20.9-4.5-4.5-5.9-1-15.9,3-23.6v-.2c0-.2-.2-.4-.2-.8-.2-.4-.2-.6-.4-1,0-.2-.2-.4-.2-.8s-.2-.4-.2-.6c-15.9,21.6-21.5,39.8-14.8,48.6,7.7,10.2,29.3,9.1,58.1-3.1,18.3-7.7,37.8-19.1,56.5-33.3,18.7-14.2,35.2-29.7,47.6-45.3h0Z"/>
    </g>
  </g>
</svg>